<svg version="1.0" xmlns="http://www.w3.org/2000/svg"  width="382.000000pt" height="282.000000pt" viewBox="0 0 382.000000 282.000000"  preserveAspectRatio="xMidYMid meet"> <g transform="translate(0.000000,282.000000) scale(0.100000,-0.100000)" fill="#000000" stroke="none"> <path d="M1856 2500 c-34 -45 -78 -107 -97 -140 -19 -33 -38 -60 -42 -60 -5 0 -33 20 -64 45 -76 62 -188 126 -207 119 -21 -8 -52 -112 -68 -222 -6 -48 -12 -88 -13 -89 0 -1 -25 4 -55 12 -79 20 -219 37 -247 31 -20 -6 -23 -12 -23 -59 0 -67 31 -206 64 -287 14 -35 24 -65 22 -67 -2 -2 -45 -13 -95 -23 -89 -19 -144 -40 -156 -60 -20 -32 137 -222 243 -297 37 -26 69 -48 71 -49 2 -2 -12 -16 -30 -31 -19 -15 -51 -44 -72 -65 -34 -32 -37 -40 -27 -59 15 -27 138 -84 238 -110 113 -29 290 -26 373 6 11 4 22 -11 39 -52 17 -41 44 -78 94 -128 86 -86 121 -103 163 -81 75 38 182 161 198 229 4 15 10 29 14 31 3 2 31 -2 61 -10 64 -17 222 -20 297 -5 54 11 210 71 251 97 35 23 26 47 -44 114 -36 34 -62 66 -57 69 4 4 34 24 66 45 90 61 237 234 241 285 1 23 -63 52 -162 72 -46 10 -86 20 -88 22 -3 2 5 26 16 52 53 123 86 329 57 354 -19 15 -166 1 -256 -25 -29 -8 -54 -14 -55 -12 -1 2 -9 48 -19 103 -21 126 -33 168 -56 196 l-18 22 -77 -44 c-43 -24 -102 -65 -131 -92 l-54 -48 -17 33 c-48 93 -176 258 -200 258 -8 0 -43 -36 -78 -80z m158 -109 c64 -91 116 -193 153 -298 25 -71 27 -92 28 -223 0 -102 -4 -157 -15 -185 l-14 -40 -13 70 c-21 120 -174 385 -221 385 -23 0 -118 -137 -167 -241 -19 -41 -42 -104 -49 -140 -8 -35 -16 -57 -19 -49 -20 51 -28 113 -28 203 1 189 82 395 228 575 42 51 41 51 117 -57z m401 -76 c8 -33 18 -89 21 -125 l6 -65 -67 -34 c-37 -19 -80 -45 -96 -58 l-28 -24 -6 28 c-4 15 -18 65 -33 111 l-26 82 35 36 c43 45 162 125 171 116 4 -4 14 -34 23 -67z m-864 29 c30 -20 73 -55 96 -77 40 -39 41 -41 28 -67 -8 -15 -23 -60 -34 -100 -11 -40 -22 -75 -25 -77 -2 -2 -23 9 -47 25 -24 17 -66 41 -93 53 l-48 24 5 61 c8 86 37 194 52 194 7 0 37 -16 66 -36z m-259 -239 c78 -20 231 -93 281 -135 l37 -31 0 -92 c0 -56 7 -119 19 -163 20 -79 90 -220 135 -274 67 -79 64 -72 31 -64 -102 24 -260 94 -338 150 -110 79 -203 186 -260 300 -30 59 -73 191 -82 249 -3 22 -8 51 -11 64 -5 24 -5 24 60 18 36 -3 93 -13 128 -22z m1474 3 c-42 -204 -61 -260 -128 -372 -80 -136 -204 -243 -371 -321 -85 -39 -205 -81 -212 -73 -2 2 18 29 44 61 100 120 161 291 161 447 0 98 1 100 100 162 97 61 267 115 368 117 39 1 42 -1 38 -21z m-782 -158 c26 -38 61 -102 78 -142 28 -66 32 -83 32 -178 1 -97 -1 -109 -26 -151 -32 -54 -115 -149 -131 -149 -22 0 -115 108 -142 166 -22 46 -28 73 -28 125 0 64 27 168 60 234 20 38 101 165 106 165 3 0 25 -31 51 -70z m-784 -282 c45 -69 84 -112 152 -169 55 -46 61 -59 29 -59 -9 0 -42 -11 -73 -24 l-57 -23 -50 28 c-28 15 -74 46 -101 69 -50 42 -152 169 -145 180 4 6 89 31 150 43 52 12 62 7 95 -45z m1608 36 c114 -24 118 -26 84 -73 -67 -93 -161 -180 -232 -216 -41 -21 -48 -22 -70 -9 -14 7 -48 21 -77 29 l-52 16 72 63 c40 34 95 94 122 133 28 40 56 72 63 72 7 1 47 -6 90 -15z m-1242 -338 c66 -32 186 -73 274 -94 l35 -8 -72 -43 c-188 -112 -409 -123 -615 -31 -27 11 -48 25 -48 30 0 15 104 97 160 125 125 64 168 67 266 21z m929 13 c30 -11 75 -31 99 -45 54 -30 138 -103 134 -116 -5 -13 -106 -54 -179 -73 -32 -8 -101 -15 -157 -15 -120 0 -219 28 -326 92 l-68 42 88 23 c91 24 250 85 268 103 16 16 81 11 141 -11z m-407 -238 c29 -12 33 -17 27 -40 -14 -58 -70 -132 -141 -188 l-42 -33 -48 43 c-67 58 -90 85 -114 133 -28 57 -25 68 19 89 22 9 63 34 92 55 l53 37 60 -41 c34 -23 76 -48 94 -55z"/> <path d="M570 1541 c-5 -11 -10 -36 -10 -55 l0 -35 -46 24 c-54 29 -83 31 -124 10 -34 -17 -44 -43 -31 -76 5 -13 63 -134 129 -269 116 -235 126 -251 242 -395 66 -82 135 -163 152 -178 18 -15 110 -67 203 -114 94 -47 196 -101 228 -120 62 -37 100 -91 112 -155 8 -43 27 -63 51 -54 22 8 14 88 -15 143 -38 75 -75 101 -317 222 -88 44 -179 94 -201 110 -23 17 -86 85 -140 153 -167 209 -149 178 -360 616 -29 59 -24 74 21 65 46 -9 104 -78 196 -233 96 -161 159 -235 339 -393 64 -55 137 -120 162 -144 46 -44 79 -50 79 -14 -1 23 -11 34 -145 152 -221 196 -249 224 -242 242 4 10 19 22 34 28 41 15 94 -10 203 -97 111 -90 162 -116 285 -144 299 -69 460 -271 491 -617 7 -81 23 -105 54 -85 12 7 21 8 25 2 3 -6 9 -10 13 -10 25 1 34 27 48 130 17 127 57 257 103 329 45 70 138 154 210 191 35 17 115 44 179 61 125 32 171 54 259 127 113 93 147 113 193 114 31 0 47 -5 57 -18 13 -17 6 -27 -79 -109 -51 -50 -139 -130 -196 -179 -87 -74 -103 -92 -100 -114 2 -14 9 -27 15 -29 7 -3 45 26 86 64 40 37 101 92 135 121 34 29 103 95 154 146 78 77 107 116 178 236 47 80 102 164 123 187 40 43 101 73 118 56 11 -11 -204 -456 -253 -523 -94 -129 -230 -289 -266 -312 -22 -15 -113 -63 -203 -108 -214 -107 -280 -154 -313 -223 -33 -66 -38 -125 -13 -141 23 -14 42 9 51 63 8 49 42 99 91 132 22 15 123 69 225 120 213 108 241 131 403 339 88 112 112 152 223 377 117 238 134 282 116 310 -24 37 -112 38 -163 2 -15 -10 -29 -19 -31 -19 -2 0 -2 16 0 35 6 53 -20 78 -75 72 -54 -6 -102 -42 -134 -101 -21 -40 -28 -46 -56 -46 -25 0 -43 -10 -76 -42 -35 -35 -53 -67 -91 -163 l-48 -120 -84 -65 c-108 -84 -143 -101 -289 -140 -149 -40 -229 -84 -316 -170 -107 -107 -173 -263 -195 -458 -4 -34 -8 -61 -10 -59 -2 2 -9 39 -15 83 -37 266 -154 452 -342 543 -45 22 -127 52 -182 66 -134 35 -164 50 -271 134 l-92 72 -31 88 c-59 161 -114 231 -183 231 -21 0 -31 8 -44 33 -21 41 -62 85 -96 103 -40 21 -95 18 -108 -5z m104 -62 c34 -27 54 -67 116 -231 49 -130 49 -133 31 -151 -18 -19 -20 -17 -73 70 -30 48 -62 102 -70 118 -16 31 -68 188 -68 206 0 16 36 10 64 -12z m2576 -3 c0 -47 -56 -182 -120 -289 -35 -59 -67 -107 -71 -107 -3 0 -11 10 -18 23 -11 21 -6 40 38 155 62 163 73 183 111 216 40 33 60 33 60 2z m-2398 -137 c18 -10 85 -137 102 -194 5 -19 2 -21 -28 -17 -34 4 -36 7 -65 88 -50 137 -51 145 -9 123z m2194 -6 c-4 -10 -21 -58 -39 -108 -31 -87 -33 -90 -66 -93 -27 -3 -32 0 -28 12 40 103 73 170 94 186 32 25 46 26 39 3z"/> </g> </svg>