<svg version="1.0" xmlns="http://www.w3.org/2000/svg"  width="272.000000pt" height="246.000000pt" viewBox="0 0 272.000000 246.000000"  preserveAspectRatio="xMidYMid meet"> <g transform="translate(0.000000,246.000000) scale(0.100000,-0.100000)" fill="#000000" stroke="none"> <path d="M1234 2394 c-97 -34 -164 -129 -179 -250 -6 -44 -15 -67 -36 -92 -16 -18 -29 -44 -29 -57 0 -46 31 -104 76 -140 24 -20 44 -41 44 -47 0 -5 14 -28 31 -49 29 -37 30 -41 15 -58 -9 -10 -16 -24 -16 -32 0 -30 -31 -57 -92 -79 -184 -67 -209 -97 -283 -330 -74 -232 -114 -301 -230 -392 -76 -60 -89 -66 -111 -58 -82 31 -176 -19 -193 -104 -5 -20 -14 -32 -26 -35 -31 -5 -45 -21 -45 -50 0 -56 81 -111 165 -112 53 -1 56 -2 50 -23 -14 -44 -17 -145 -5 -181 16 -48 73 -111 124 -137 44 -23 184 -38 386 -43 58 -2 124 -8 145 -14 96 -27 184 -5 215 54 8 14 23 28 35 31 20 5 193 -17 285 -36 120 -25 261 -42 311 -37 29 3 108 10 175 15 170 14 221 42 271 150 21 45 24 64 20 110 -3 32 -9 68 -12 82 -6 24 -5 25 48 26 44 1 64 8 101 33 25 18 51 41 57 53 16 29 -3 66 -41 80 -25 8 -30 15 -30 44 0 65 -80 112 -171 100 -47 -6 -49 -6 -131 60 -116 92 -144 142 -233 407 -52 156 -82 212 -130 243 -14 9 -70 35 -127 57 -93 38 -103 45 -108 72 -4 17 -13 40 -20 51 -12 19 -10 26 18 60 18 21 32 44 32 51 0 7 17 24 38 38 46 31 72 80 72 140 0 37 -4 47 -30 65 -27 19 -30 26 -30 78 0 113 -76 222 -179 257 -56 19 -172 18 -227 -1z m244 -66 c39 -20 53 -35 80 -87 27 -53 32 -73 32 -131 0 -65 1 -70 28 -82 51 -25 36 -100 -27 -132 -15 -8 -34 -30 -42 -48 -35 -89 -130 -168 -198 -168 -71 1 -160 72 -201 160 -15 32 -32 53 -51 60 -18 8 -33 26 -43 51 -18 44 -12 69 15 69 26 0 35 25 38 99 2 77 38 160 83 192 75 54 200 61 286 17z m-208 -673 c34 -19 110 -19 160 1 23 9 43 14 46 11 3 -2 -18 -21 -46 -42 -28 -20 -57 -50 -66 -67 l-15 -29 -29 39 c-15 22 -44 49 -64 61 -55 35 -42 58 14 26z m-35 -63 c50 -37 95 -104 75 -110 -6 -2 -25 1 -42 7 -20 7 -35 8 -41 2 -18 -18 2 -41 48 -52 l45 -11 0 -59 0 -59 -32 0 c-42 0 -63 -13 -55 -34 4 -11 19 -16 47 -16 l40 0 0 -65 0 -65 -39 0 c-22 0 -43 -5 -46 -10 -12 -19 16 -40 51 -40 l34 0 0 -65 0 -65 -40 0 c-28 0 -43 -5 -47 -16 -8 -21 13 -34 55 -34 l32 0 0 -65 0 -65 -40 0 c-28 0 -43 -5 -47 -16 -8 -22 14 -34 61 -34 l39 0 -6 -66 c-5 -73 -24 -107 -75 -137 -30 -17 -35 -18 -85 -3 -30 9 -80 31 -112 50 -32 20 -81 43 -109 52 -71 23 -76 31 -22 39 35 6 63 2 118 -16 40 -12 77 -26 82 -31 13 -11 66 -10 66 1 0 9 -124 64 -172 76 -33 8 -33 11 -12 76 14 43 16 83 11 267 -3 120 -8 225 -12 235 -8 19 -41 23 -47 6 -2 -6 0 -41 4 -78 28 -256 -19 -378 -199 -516 -61 -47 -76 -45 -92 9 -12 43 -68 107 -104 119 -26 10 -21 21 23 47 22 14 40 28 40 32 0 3 20 14 44 23 43 17 92 17 144 0 17 -6 22 -3 22 9 0 21 -57 46 -107 46 -34 0 -36 1 -22 16 12 11 36 16 83 16 38 0 66 5 66 11 0 19 -35 36 -74 37 -26 0 -37 4 -33 13 2 6 18 55 35 107 44 137 89 256 107 284 15 22 80 59 178 100 49 21 64 20 72 -3 8 -27 32 -44 51 -37 14 5 14 10 -5 42 -21 34 -28 84 -13 84 4 0 30 -17 57 -38z m287 16 c2 -13 -5 -37 -15 -54 -15 -27 -15 -33 -3 -43 12 -10 19 -6 38 19 28 38 44 37 152 -13 99 -46 120 -76 182 -254 29 -82 59 -165 68 -185 l16 -38 -38 0 c-37 0 -82 -22 -82 -40 0 -5 26 -8 58 -8 32 0 69 -5 83 -13 23 -13 22 -14 -27 -19 -55 -6 -104 -32 -104 -55 0 -18 8 -18 40 0 35 20 115 19 148 -2 32 -21 37 -25 82 -63 32 -27 33 -29 15 -36 -58 -22 -115 -93 -115 -144 0 -33 -32 -24 -101 29 -82 62 -119 104 -155 177 -29 58 -29 61 -28 237 0 175 0 178 -20 175 -28 -4 -35 -64 -37 -303 -1 -142 2 -190 15 -225 19 -55 20 -70 2 -70 -19 0 -104 -38 -111 -50 -14 -23 29 -20 95 6 65 25 75 27 113 15 23 -6 60 -16 82 -22 22 -5 68 -22 103 -36 57 -24 68 -25 105 -16 38 11 47 9 91 -15 56 -31 102 -88 112 -138 21 -111 -67 -217 -191 -230 l-60 -7 38 40 c67 70 43 85 -37 24 -70 -54 -132 -81 -188 -81 -27 0 -48 3 -48 8 0 4 28 23 62 42 59 34 89 63 76 75 -3 3 -41 -12 -84 -34 -123 -63 -151 -68 -296 -48 -68 9 -144 17 -170 17 -44 0 -66 15 -35 24 186 58 249 82 382 147 94 46 191 73 258 71 40 0 47 2 47 18 0 14 -11 22 -39 30 -23 6 -42 18 -46 29 -7 22 -34 36 -101 52 -45 11 -59 10 -124 -10 -49 -15 -86 -21 -109 -17 -20 4 -62 9 -93 12 -55 6 -59 5 -87 -25 -16 -17 -32 -31 -36 -31 -15 0 -35 74 -35 130 l0 60 39 0 c40 0 72 23 55 40 -5 5 -27 10 -49 12 l-40 3 -3 63 -3 62 39 0 c40 0 69 20 57 40 -3 5 -26 10 -51 10 l-44 0 0 65 0 65 39 0 c40 0 72 23 55 40 -5 5 -27 10 -49 12 l-40 3 -3 63 -3 62 39 0 c40 0 69 20 57 40 -3 5 -26 10 -51 10 l-45 0 3 56 3 56 49 19 c62 23 73 34 57 53 -12 14 -16 14 -42 1 -28 -15 -59 -20 -59 -10 0 27 37 79 75 109 56 42 62 44 67 14z m-566 -862 c-11 -26 -26 -41 -50 -51 -60 -25 -60 -17 -2 47 31 34 57 66 57 72 1 6 4 1 6 -10 2 -12 -3 -38 -11 -58z m862 -35 c29 -31 22 -37 -22 -16 -46 22 -56 35 -63 82 l-5 38 33 -40 c19 -21 44 -50 57 -64z m-1356 48 c15 -8 26 -8 43 1 18 10 28 9 53 -4 34 -18 55 -46 44 -62 -15 -21 -110 -93 -151 -115 -33 -17 -61 -23 -107 -23 -93 0 -101 24 -13 38 48 8 50 21 7 39 -44 18 -60 40 -56 73 5 40 26 42 30 2 2 -27 7 -32 23 -30 28 5 45 4 83 -4 20 -4 38 -2 47 6 23 19 18 30 -15 30 -29 0 -100 37 -100 53 0 11 89 8 112 -4z m1727 -1 c15 -9 25 -9 46 0 14 7 47 12 73 12 l47 -1 -35 -29 c-20 -17 -47 -30 -62 -30 -18 0 -28 -5 -28 -14 0 -20 24 -26 100 -23 l65 3 -3 32 c-2 18 1 32 7 32 6 0 11 -15 11 -33 0 -36 -30 -72 -64 -79 -11 -1 -21 -8 -23 -15 -4 -12 9 -17 71 -28 58 -10 29 -30 -43 -29 -40 1 -72 8 -101 23 -50 26 -146 100 -154 119 -6 14 47 72 65 72 5 0 18 -5 28 -12z m-1914 -138 c17 -7 15 -9 -12 -9 -18 -1 -33 4 -33 9 0 12 17 12 45 0z m2185 0 c12 -8 9 -10 -13 -10 -16 0 -26 4 -22 10 8 12 16 12 35 0z m-1519 -43 c33 -15 33 -15 -58 -16 -97 -1 -161 -18 -198 -52 -34 -33 -5 -43 51 -17 43 20 65 23 169 22 88 -1 133 -5 169 -18 76 -28 153 -46 191 -46 19 0 36 -3 38 -7 10 -16 -47 -161 -86 -220 -51 -77 -72 -88 -137 -69 -56 17 -186 81 -244 120 -45 30 -69 34 -64 9 2 -10 33 -38 70 -63 54 -35 64 -46 52 -53 -41 -23 -182 30 -249 94 -30 28 -65 39 -65 19 0 -5 17 -29 38 -52 l37 -41 -54 7 c-74 10 -126 39 -159 89 -22 35 -27 53 -27 108 0 56 4 71 27 101 15 20 48 48 73 63 39 23 54 26 93 20 32 -4 60 -1 87 10 49 19 195 14 246 -8z m947 -37 c18 -11 31 -24 28 -29 -3 -5 -27 -11 -53 -13 -30 -3 -90 -26 -163 -61 -115 -56 -377 -153 -387 -143 -6 6 35 124 49 143 5 7 26 13 46 15 28 2 38 8 40 23 2 11 8 30 14 43 13 26 49 29 138 10 50 -10 64 -9 116 9 79 27 131 28 172 3z m-524 -12 c20 -28 12 -39 -27 -36 -46 2 -49 6 -25 33 26 31 33 31 52 3z"/> <path d="M1182 2105 c-19 -8 -32 -20 -30 -26 5 -16 138 -19 138 -3 0 33 -62 49 -108 29z"/> <path d="M1416 2094 c-25 -25 -11 -32 55 -29 70 4 82 11 55 31 -26 19 -91 18 -110 -2z"/> <path d="M1170 1996 c0 -22 24 -36 61 -36 35 0 69 23 56 37 -13 12 -117 12 -117 -1z"/> <path d="M1410 1989 c0 -20 20 -29 64 -29 33 0 56 15 56 36 0 7 -20 11 -60 10 -48 -1 -60 -4 -60 -17z"/> <path d="M1313 1878 c2 -7 19 -13 37 -13 18 0 35 6 38 13 2 8 -9 12 -38 12 -29 0 -40 -4 -37 -12z"/> <path d="M1274 1798 c-8 -13 34 -28 78 -28 40 0 68 13 68 31 0 10 -140 7 -146 -3z"/> <path d="M1153 351 c-68 -74 -77 -91 -47 -91 16 0 102 88 121 124 30 59 -5 43 -74 -33z"/> </g> </svg>