<svg version="1.0" xmlns="http://www.w3.org/2000/svg"  width="268.000000pt" height="238.000000pt" viewBox="0 0 268.000000 238.000000"  preserveAspectRatio="xMidYMid meet"> <g transform="translate(0.000000,238.000000) scale(0.100000,-0.100000)" fill="#000000" stroke="none"> <path d="M1103 2086 c-35 -12 -68 -46 -150 -154 l-55 -73 -343 2 c-189 0 -349 -2 -354 -6 -17 -10 -13 -52 5 -59 9 -3 155 -6 326 -6 306 0 311 0 294 -19 -10 -11 -49 -27 -87 -36 -51 -13 -79 -26 -102 -49 -33 -32 -37 -36 -155 -179 -77 -92 -164 -170 -245 -220 -40 -25 -48 -34 -45 -56 5 -44 43 -39 123 17 109 77 262 236 340 356 22 33 59 53 116 62 60 10 111 44 150 101 64 94 196 253 209 253 5 0 30 -21 55 -46 54 -53 115 -83 167 -84 31 0 41 -6 69 -42 34 -45 50 -63 163 -196 109 -128 161 -145 271 -87 25 14 54 25 63 25 19 0 71 -48 182 -165 122 -129 234 -207 357 -250 56 -20 83 -12 83 25 0 23 -13 32 -80 54 -91 31 -187 102 -338 250 -78 78 -150 144 -160 148 -45 18 -145 -7 -167 -42 -3 -5 -21 -10 -38 -10 -41 0 -99 58 -213 210 -43 58 -90 115 -104 127 -32 29 -84 46 -118 40 -21 -4 -36 5 -82 48 -67 64 -93 76 -137 61z"/> <path d="M1961 2062 c-60 -23 -122 -87 -144 -150 l-19 -51 -81 -3 c-69 -3 -82 -6 -85 -21 -9 -47 -7 -47 452 -47 449 0 456 1 456 41 0 29 -19 33 -140 34 l-115 0 -10 33 c-14 48 -76 124 -120 148 -56 31 -139 37 -194 16z m176 -88 c30 -23 75 -93 67 -106 -3 -4 -77 -8 -165 -8 -139 0 -159 2 -159 16 0 26 29 67 68 97 33 26 43 28 99 25 43 -3 72 -10 90 -24z"/> <path d="M1364 1756 c-7 -19 63 -146 117 -212 52 -62 102 -101 175 -136 74 -35 98 -59 89 -87 -9 -29 -77 -67 -176 -97 -189 -57 -250 -82 -310 -127 -39 -28 -55 -69 -40 -104 22 -54 95 -79 451 -154 342 -72 504 -180 488 -324 -10 -84 -53 -152 -177 -274 -93 -93 -112 -117 -104 -130 6 -9 18 -17 27 -19 34 -7 166 115 258 239 59 80 83 200 58 289 -12 41 -79 123 -118 143 -15 7 -52 27 -82 44 -57 31 -146 61 -265 88 -72 17 -89 20 -260 55 -107 22 -194 47 -209 61 -28 25 59 71 255 132 183 58 234 86 261 142 37 76 9 121 -114 183 -103 52 -158 106 -218 215 -38 68 -50 83 -73 85 -18 2 -29 -2 -33 -12z"/> <path d="M1325 1284 c-55 -13 -116 -28 -135 -34 -19 -5 -69 -19 -110 -31 -90 -26 -204 -81 -243 -118 -58 -53 -72 -120 -41 -186 35 -74 172 -144 434 -221 111 -33 179 -70 187 -102 8 -33 -34 -68 -142 -120 -132 -64 -548 -195 -770 -242 -33 -7 -116 -27 -185 -44 -118 -29 -125 -32 -128 -57 -5 -47 21 -47 228 2 542 128 920 262 1025 363 41 38 45 47 45 89 0 38 -5 51 -31 77 -44 44 -82 61 -290 130 -183 61 -262 100 -299 148 -32 40 -25 65 29 113 70 60 124 81 371 145 173 45 200 56 200 80 0 13 -4 24 -9 24 -5 0 -15 2 -23 4 -7 2 -58 -7 -113 -20z"/> </g> </svg>