<svg version="1.0" xmlns="http://www.w3.org/2000/svg"  width="242.000000pt" height="246.000000pt" viewBox="0 0 242.000000 246.000000"  preserveAspectRatio="xMidYMid meet"> <g transform="translate(0.000000,246.000000) scale(0.100000,-0.100000)" fill="#000000" stroke="none"> <path d="M1040 2264 c-76 -15 -225 -56 -249 -69 -26 -13 -31 -12 -62 9 -118 79 -273 54 -345 -57 -43 -66 -61 -153 -46 -225 l12 -56 -58 -85 c-32 -47 -73 -120 -91 -161 -18 -41 -37 -84 -42 -95 -24 -53 -41 -163 -46 -296 -5 -125 -3 -161 16 -250 60 -297 225 -543 470 -706 141 -93 259 -138 443 -167 120 -20 190 -20 293 -1 247 44 414 124 584 280 50 46 147 164 178 215 119 201 165 365 166 590 0 230 -57 408 -198 614 -42 62 -43 64 -33 112 49 249 -188 424 -391 288 -34 -23 -34 -23 -70 -5 -79 41 -199 63 -356 66 -82 2 -161 1 -175 -1z m273 -75 c116 -18 247 -57 247 -75 0 -3 -8 -19 -17 -37 -9 -18 -22 -66 -28 -107 l-11 -75 -59 3 c-79 4 -205 -22 -281 -60 -84 -40 -195 -144 -244 -227 -45 -75 -50 -106 -20 -116 27 -9 41 4 70 61 25 52 138 171 183 194 26 13 32 12 74 -11 55 -29 129 -108 178 -190 29 -47 42 -59 59 -57 36 5 33 52 -7 111 -43 65 -128 152 -170 174 l-32 16 35 15 c38 16 174 28 212 19 14 -4 31 -20 40 -39 57 -120 167 -165 290 -121 47 16 48 16 100 -8 73 -33 177 -138 213 -214 65 -137 32 -363 -75 -522 -111 -162 -269 -277 -483 -348 -109 -37 -256 -70 -265 -60 -3 3 6 18 20 33 42 45 53 72 35 89 -17 17 -49 20 -89 9 -47 -14 -32 12 24 40 48 24 57 26 142 20 l91 -7 80 39 c66 32 95 55 162 125 45 48 88 99 96 114 8 16 26 51 41 80 14 28 36 95 48 148 24 109 20 130 -28 130 -29 0 -29 -1 -36 -70 -3 -38 -13 -92 -21 -118 -38 -120 -160 -269 -282 -344 -59 -36 -62 -37 -170 -37 -120 -1 -151 -12 -220 -75 l-34 -31 -18 24 c-10 12 -39 36 -63 52 -43 27 -51 29 -155 29 -103 1 -113 2 -164 30 -30 17 -87 61 -127 98 -112 104 -178 226 -191 352 -7 72 -17 95 -42 95 -45 0 -48 -45 -11 -180 24 -88 58 -158 110 -225 54 -70 166 -167 233 -203 48 -25 60 -27 154 -25 92 2 107 0 152 -23 72 -36 72 -45 2 -37 -57 5 -61 4 -61 -14 0 -27 15 -37 73 -53 32 -8 72 -10 123 -6 81 7 89 0 33 -30 -86 -44 -224 -38 -403 17 -219 68 -382 171 -484 307 -112 150 -146 245 -147 407 0 102 2 114 30 169 37 75 122 162 200 205 59 33 59 33 105 18 68 -23 104 -27 143 -16 53 14 132 81 153 128 16 36 22 41 61 47 24 3 67 4 96 1 41 -4 59 -1 85 15 52 32 42 45 -44 53 -41 4 -95 5 -118 3 l-43 -5 -7 68 c-3 39 -16 89 -28 114 -19 40 -20 47 -8 55 14 9 203 55 260 63 53 9 164 7 233 -4z m-672 -24 c108 -47 166 -171 140 -296 -54 -252 -369 -158 -375 111 -1 57 3 71 29 110 53 79 133 107 206 75z m1218 -5 c51 -26 78 -61 97 -127 15 -50 15 -59 -2 -120 -14 -51 -28 -77 -66 -119 -55 -60 -99 -79 -165 -71 -50 5 -75 24 -110 84 -54 93 -36 227 40 304 71 71 135 86 206 49z m176 -448 c29 -51 28 -60 -3 -35 -11 10 -34 26 -51 35 -28 16 -30 19 -20 48 11 30 12 30 30 14 11 -9 30 -37 44 -62z m-1618 41 c13 -19 10 -23 -44 -54 -77 -45 -77 -45 -63 -18 22 42 72 100 83 96 6 -2 16 -12 24 -24z m-135 -928 c61 -90 214 -204 362 -269 140 -61 382 -120 451 -111 28 4 73 7 100 6 28 0 77 -1 110 -2 119 -2 338 60 490 138 117 60 239 162 302 250 25 35 48 62 50 59 9 -8 -18 -78 -64 -168 -210 -411 -658 -633 -1094 -543 -283 59 -552 264 -693 528 -31 58 -76 172 -76 193 0 8 23 -22 62 -81z"/> <path d="M1122 1487 c-23 -29 -50 -73 -61 -98 l-20 -46 -70 35 c-40 20 -92 37 -120 40 -46 4 -50 3 -56 -20 -10 -38 -10 -88 -2 -155 l8 -63 -34 0 c-18 0 -57 -7 -85 -15 -45 -14 -52 -19 -52 -41 0 -29 21 -73 59 -124 40 -53 70 -77 147 -116 89 -45 185 -55 284 -30 61 15 70 15 130 0 143 -37 292 5 396 111 58 60 106 151 93 176 -9 17 -71 37 -129 41 -31 3 -35 6 -33 28 2 14 3 63 3 109 1 109 -6 116 -82 96 -57 -14 -134 -50 -144 -66 -10 -17 -22 -9 -37 29 -8 20 -36 65 -61 100 -59 80 -78 82 -134 9z m98 -74 c17 -21 40 -69 52 -107 29 -97 21 -176 -28 -263 -19 -35 -42 -67 -50 -70 -19 -7 -49 29 -85 102 -49 100 -38 218 31 324 19 28 37 51 41 51 4 0 22 -17 39 -37z m-265 -96 l60 -34 0 -74 c1 -82 16 -134 52 -192 14 -22 22 -41 19 -45 -11 -10 -121 66 -153 107 -40 51 -70 131 -79 210 -6 60 -6 61 17 61 13 0 51 -15 84 -33z m565 -14 c0 -88 -46 -192 -109 -250 -34 -33 -109 -83 -122 -83 -12 0 -13 -2 23 66 30 57 52 162 43 204 -5 23 -1 31 24 49 34 25 110 60 129 61 8 0 12 -16 12 -47z m-657 -235 c41 -60 82 -95 150 -130 55 -27 59 -38 15 -38 -61 0 -146 27 -200 62 -49 33 -118 113 -118 137 0 9 24 14 96 19 15 2 31 -13 57 -50z m790 33 c16 -16 -42 -89 -114 -144 -40 -30 -197 -71 -220 -56 -16 9 -18 7 44 40 57 31 120 88 154 142 25 39 25 40 76 34 28 -4 55 -11 60 -16z"/> </g> </svg>