<svg version="1.0" xmlns="http://www.w3.org/2000/svg"  width="252.000000pt" height="234.000000pt" viewBox="0 0 252.000000 234.000000"  preserveAspectRatio="xMidYMid meet"> <g transform="translate(0.000000,234.000000) scale(0.100000,-0.100000)" fill="#000000" stroke="none"> <path d="M1173 2240 c-131 -28 -228 -139 -239 -278 -3 -37 -13 -82 -21 -101 -21 -48 -11 -126 21 -160 13 -14 33 -48 45 -75 12 -28 33 -64 46 -82 32 -42 31 -54 -5 -86 -21 -18 -30 -35 -30 -56 0 -37 -10 -45 -90 -70 -36 -11 -96 -29 -133 -41 -92 -29 -114 -42 -164 -93 -40 -42 -259 -369 -323 -481 -36 -65 -48 -141 -31 -205 15 -53 75 -114 129 -130 47 -14 161 -15 292 -2 62 6 97 5 101 -1 3 -6 7 -60 8 -122 2 -118 11 -144 45 -131 17 6 18 19 15 137 l-4 131 69 13 c38 7 73 18 78 25 4 7 8 41 8 74 0 68 11 81 56 64 14 -6 37 -10 51 -10 14 0 41 -13 60 -30 40 -36 71 -38 141 -9 36 15 54 29 62 50 14 33 13 32 54 19 17 -5 43 -12 59 -15 26 -5 27 -8 27 -68 0 -34 4 -68 9 -75 4 -7 41 -19 82 -26 l74 -12 -3 -60 c-1 -32 -5 -89 -8 -125 -6 -69 6 -96 39 -84 11 5 17 35 23 133 l9 127 25 -2 c14 -1 97 -4 185 -8 153 -6 162 -5 205 17 87 44 133 164 101 261 -17 52 -188 323 -314 499 -67 94 -90 107 -327 178 -90 27 -100 34 -100 71 0 17 -12 42 -31 63 l-30 35 40 67 c23 37 41 72 41 77 0 5 14 28 31 52 38 53 50 131 27 167 -8 13 -17 55 -20 93 -11 159 -126 275 -285 289 -32 3 -77 1 -100 -4z m158 -65 c105 -36 169 -128 169 -245 0 -46 5 -73 19 -93 22 -34 17 -72 -14 -107 -12 -14 -34 -50 -47 -81 -49 -109 -125 -169 -212 -169 -88 0 -165 61 -214 170 -14 30 -36 68 -49 83 -24 30 -31 85 -13 103 5 5 14 48 18 94 10 99 35 155 89 199 70 58 167 75 254 46z m-69 -752 c26 3 65 15 87 27 l41 20 0 -23 c0 -18 -12 -30 -50 -51 -27 -15 -58 -38 -69 -51 -20 -27 -41 -33 -41 -12 0 7 -18 24 -41 37 -68 42 -89 61 -89 80 0 18 4 17 58 -7 45 -20 67 -24 104 -20z m-136 -69 c50 -30 69 -51 78 -86 8 -33 -2 -35 -65 -13 -48 17 -69 14 -69 -10 0 -44 184 -70 283 -41 58 17 79 38 59 58 -7 7 -26 5 -62 -7 -65 -22 -81 -11 -53 37 19 32 86 80 131 93 18 5 22 3 22 -18 0 -34 25 -53 115 -83 212 -71 244 -86 280 -126 43 -47 272 -392 315 -473 54 -103 34 -207 -48 -242 -31 -13 -65 -15 -212 -9 -155 5 -272 17 -321 32 -14 4 -14 11 -1 72 7 37 12 100 10 140 -3 59 -1 72 12 72 8 0 80 -12 160 -26 219 -38 238 -40 246 -20 4 10 3 21 -2 26 -5 5 -66 19 -136 31 l-128 23 0 67 c0 49 -4 68 -14 72 -22 9 -33 -12 -41 -76 -7 -57 -8 -58 -35 -52 -15 3 -51 8 -81 10 l-53 3 -22 50 c-28 64 -189 257 -226 273 -22 9 -35 9 -54 0 -33 -15 -39 -36 -25 -89 8 -31 9 -48 1 -56 -16 -16 -12 -45 11 -83 12 -19 18 -38 13 -43 -16 -14 -237 -58 -293 -59 -29 0 -66 -3 -82 -6 -28 -6 -29 -5 -29 28 0 69 -11 97 -36 97 -23 0 -24 -3 -24 -69 l0 -68 -117 -17 c-140 -21 -142 -21 -150 -41 -13 -36 12 -37 173 -11 88 14 180 28 206 32 l47 6 0 -110 c0 -64 6 -122 13 -137 9 -21 9 -28 -1 -34 -31 -20 -175 -34 -349 -35 -172 -1 -189 1 -214 19 -63 47 -75 136 -30 225 35 69 272 428 314 476 38 43 68 59 172 90 126 38 214 74 220 90 3 9 6 25 6 35 0 24 22 20 86 -17z m220 -381 c48 -60 98 -131 111 -160 15 -32 32 -55 46 -59 12 -4 25 -12 29 -18 9 -13 11 -110 3 -118 -7 -7 -105 16 -132 30 -27 15 -45 43 -77 127 -16 39 -41 91 -57 116 -48 75 -34 98 17 28 59 -82 66 -89 79 -89 8 0 17 5 20 10 8 12 -47 95 -112 171 -46 54 -52 69 -29 69 8 0 54 -48 102 -107z m-100 -171 c19 -13 74 -143 74 -177 0 -27 -27 -53 -66 -63 -43 -12 -64 -4 -64 24 0 25 18 32 36 14 8 -8 15 -6 23 4 10 12 9 22 -4 50 -22 46 -52 47 -80 4 -23 -36 -65 -51 -103 -37 -15 6 -47 8 -71 4 l-44 -7 7 58 c4 32 9 60 11 62 3 4 246 69 265 71 3 0 10 -3 16 -7z"/> </g> </svg>