<svg xmlns="http://www.w3.org/2000/svg" viewBox="0 0 400 400" width="400" height="400">

  <!-- Pass 1: Silhouette outline for merged outer structure -->
  <g fill="#000000" stroke="#000000" stroke-width="4" stroke-linejoin="round">
    <circle cx="200" cy="200" r="144.25"/>
    <path d="M 355.25,184.728 C 369.44,184.728 384.06,201.22176 398.25,200 C 384.06,198.77824 369.44,215.272 355.25,215.272 Z"/>
    <circle cx="355.25" cy="189.88" r="12.88"/>
    <circle cx="355.25" cy="210.12" r="12.88"/>
    <!-- Third central bump -->
    <circle cx="373.75" cy="200" r="11.5"/>
    <!-- Connecting rect to center to hide lines -->
    <polygon points="200,188.5 200,211.5 373.75,211.5 373.75,188.5"/>
    <circle cx="310.48543456039806" cy="310.48543456039806" r="16.5"/>
    <path d="M 215.272,355.25 C 215.272,369.44 198.77824,384.06 200,398.25 C 201.22176,384.06 184.728,369.44 184.728,355.25 Z"/>
    <circle cx="210.12" cy="355.25" r="12.88"/>
    <circle cx="189.88" cy="355.25" r="12.88"/>
    <!-- Third central bump -->
    <circle cx="200" cy="373.75" r="11.5"/>
    <!-- Connecting rect to center to hide lines -->
    <polygon points="211.5,200 188.5,200 188.5,373.75 211.5,373.75"/>
    <circle cx="89.51456543960195" cy="310.48543456039806" r="16.5"/>
    <path d="M 44.75,215.27200000000002 C 30.560000000000006,215.27200000000002 15.939999999999998,198.77824000000004 1.75,200.00000000000003 C 15.939999999999998,201.22176000000002 30.56,184.72800000000004 44.75,184.72800000000004 Z"/>
    <circle cx="44.75" cy="210.12000000000003" r="12.88"/>
    <circle cx="44.75" cy="189.88000000000002" r="12.88"/>
    <!-- Third central bump -->
    <circle cx="26.25" cy="200.00000000000003" r="11.5"/>
    <!-- Connecting rect to center to hide lines -->
    <polygon points="200,211.5 200,188.5 26.249999999999996,188.50000000000003 26.250000000000004,211.50000000000003"/>
    <circle cx="89.51456543960192" cy="89.51456543960195" r="16.5"/>
    <path d="M 184.72799999999998,44.75000000000001 C 184.72799999999998,30.560000000000006 201.22175999999996,15.939999999999998 199.99999999999997,1.75 C 198.77823999999998,15.939999999999998 215.27199999999996,30.56 215.27199999999996,44.74999999999999 Z"/>
    <circle cx="189.87999999999997" cy="44.75" r="12.88"/>
    <circle cx="210.11999999999998" cy="44.75" r="12.88"/>
    <!-- Third central bump -->
    <circle cx="199.99999999999997" cy="26.25" r="11.5"/>
    <!-- Connecting rect to center to hide lines -->
    <polygon points="188.5,200 211.5,200 211.49999999999997,26.249999999999996 188.49999999999997,26.250000000000004"/>
    <circle cx="310.485434560398" cy="89.51456543960192" r="16.5"/>
  </g>
  <!-- Pass 2: Knockout fill for merged outer structure (white) -->
  <g fill="#ffffff" stroke="none">
    <circle cx="200" cy="200" r="144.25"/>
    <path d="M 355.25,184.728 C 369.44,184.728 384.06,201.22176 398.25,200 C 384.06,198.77824 369.44,215.272 355.25,215.272 Z"/>
    <circle cx="355.25" cy="189.88" r="12.88"/>
    <circle cx="355.25" cy="210.12" r="12.88"/>
    <!-- Third central bump -->
    <circle cx="373.75" cy="200" r="11.5"/>
    <!-- Connecting rect to center to hide lines -->
    <polygon points="200,188.5 200,211.5 373.75,211.5 373.75,188.5"/>
    <circle cx="310.48543456039806" cy="310.48543456039806" r="16.5"/>
    <path d="M 215.272,355.25 C 215.272,369.44 198.77824,384.06 200,398.25 C 201.22176,384.06 184.728,369.44 184.728,355.25 Z"/>
    <circle cx="210.12" cy="355.25" r="12.88"/>
    <circle cx="189.88" cy="355.25" r="12.88"/>
    <!-- Third central bump -->
    <circle cx="200" cy="373.75" r="11.5"/>
    <!-- Connecting rect to center to hide lines -->
    <polygon points="211.5,200 188.5,200 188.5,373.75 211.5,373.75"/>
    <circle cx="89.51456543960195" cy="310.48543456039806" r="16.5"/>
    <path d="M 44.75,215.27200000000002 C 30.560000000000006,215.27200000000002 15.939999999999998,198.77824000000004 1.75,200.00000000000003 C 15.939999999999998,201.22176000000002 30.56,184.72800000000004 44.75,184.72800000000004 Z"/>
    <circle cx="44.75" cy="210.12000000000003" r="12.88"/>
    <circle cx="44.75" cy="189.88000000000002" r="12.88"/>
    <!-- Third central bump -->
    <circle cx="26.25" cy="200.00000000000003" r="11.5"/>
    <!-- Connecting rect to center to hide lines -->
    <polygon points="200,211.5 200,188.5 26.249999999999996,188.50000000000003 26.250000000000004,211.50000000000003"/>
    <circle cx="89.51456543960192" cy="89.51456543960195" r="16.5"/>
    <path d="M 184.72799999999998,44.75000000000001 C 184.72799999999998,30.560000000000006 201.22175999999996,15.939999999999998 199.99999999999997,1.75 C 198.77823999999998,15.939999999999998 215.27199999999996,30.56 215.27199999999996,44.74999999999999 Z"/>
    <circle cx="189.87999999999997" cy="44.75" r="12.88"/>
    <circle cx="210.11999999999998" cy="44.75" r="12.88"/>
    <!-- Third central bump -->
    <circle cx="199.99999999999997" cy="26.25" r="11.5"/>
    <!-- Connecting rect to center to hide lines -->
    <polygon points="188.5,200 211.5,200 211.49999999999997,26.249999999999996 188.49999999999997,26.250000000000004"/>
    <circle cx="310.485434560398" cy="89.51456543960192" r="16.5"/>
  </g>
  
<circle cx="200" cy="200" r="65" fill="#ffffff"/><path d="M 200 265 A 65 65 0 1 1 200 135 A 32.5 32.5 0 0 0 200 200 A 32.5 32.5 0 0 1 200 265 Z" fill="#000000"/><circle cx="200" cy="166.85" r="6" fill="#000000"/><circle cx="200" cy="233.15" r="6" fill="#ffffff"/><circle cx="200" cy="200" r="65" fill="none" stroke="#000000" stroke-width="1.5"/>
<path d="M 331.75 200 A 131.75 131.75 0 1 1 68.25 200 A 131.75 131.75 0 1 1 331.75 200 M 274.75 200 A 74.75 74.75 0 1 0 125.25 200 A 74.75 74.75 0 1 0 274.75 200 Z" fill="#000000" fill-rule="evenodd"/><circle cx="200" cy="200" r="66.25" fill="none" stroke="#000000" stroke-width="1"/>
<defs>
  <path id="upper-arc" d="M 108.75 200 A 91.25 91.25 0 1 1 291.25 200" fill="none"/>
  <path id="lower-arc" d="M 85.75 200 A 114.25 114.25 0 1 0 314.25 200" fill="none"/>
</defs>
<text font-size="37" fill="#ffffff" font-family="'Noto Serif SC', 'SimSun', serif" font-weight="700">
  <textPath href="#upper-arc" startOffset="50%" text-anchor="middle">意 力 拳</textPath>
</text>
<text font-size="35" fill="#ffffff" font-family="'Times New Roman', 'Noto Serif', serif" font-weight="700" letter-spacing="9">
  <textPath href="#lower-arc" startOffset="50%" text-anchor="middle">I  LIQ  CHUAN</textPath>
</text>
</svg>